<?xml version="1.0" encoding="UTF-8"?>
<svg version="1.1" xmlns="http://www.w3.org/2000/svg" width="1080" height="1080">
<path d="M0 0 C0.96679688 0.04930664 1.93359375 0.09861328 2.9296875 0.14941406 C32.93490151 1.85425577 72.20060211 5.66620946 98.00390625 22.4765625 C110.54515524 30.45864139 123.14404598 29.90822593 137.60717773 29.57592773 C138.44906647 29.56595764 139.2909552 29.55598755 140.15835571 29.54571533 C141.75522045 29.52360145 143.35200766 29.47553347 144.94711304 29.3973999 C148.8463254 29.34840786 150.81350261 29.86343924 153.97607422 32.17919922 C157.48848801 37.2389969 156.77280849 43.72129889 156.76953125 49.62109375 C156.78054343 50.96664782 156.79258101 52.31219384 156.80558777 53.6577301 C156.82645828 56.47803721 156.82780096 59.29756538 156.81665039 62.11791992 C156.80734383 64.98264161 156.82785687 67.84444934 156.87817383 70.70874023 C157.41075398 101.26023913 157.41075398 101.26023913 148 113 C147.67 113.33 147.34 113.66 147 114 C146.90248472 115.57535677 146.87520924 117.15510177 146.87530136 118.73347378 C146.87291041 119.76386632 146.87051946 120.79425887 146.86805606 121.85587543 C146.87048855 123.00175304 146.87292104 124.14763064 146.87542725 125.32823181 C146.8740171 126.53484563 146.87260695 127.74145945 146.87115407 128.98463732 C146.86875681 131.64482445 146.86821053 134.30494003 146.87071037 136.96512032 C146.87475689 141.29291575 146.87200758 145.62069148 146.86836243 149.94848633 C146.86426591 155.41733704 146.86203266 160.88618336 146.86194643 166.35503561 C146.86174393 177.10841953 146.84929676 187.86175822 146.83233643 198.61512756 C146.82973053 200.30702286 146.82713172 201.99891816 146.8245399 203.69081348 C146.82060124 206.25538858 146.81665475 208.81996366 146.81267868 211.38453869 C146.79772084 221.0624283 146.78410335 230.74031931 146.77197266 240.41821289 C146.7708591 241.30323687 146.76974553 242.18826085 146.76859823 243.10010374 C146.75104174 257.42634684 146.74815273 271.75256167 146.74982306 286.07881372 C146.75110299 300.78492352 146.73334154 315.49092827 146.69880509 330.1969977 C146.67816749 339.26792286 146.67280834 348.33859629 146.6871334 357.40953476 C146.69560552 363.63207781 146.6858269 369.85442558 146.6618239 376.07692742 C146.6485414 379.66507771 146.64328483 383.25275939 146.65994453 386.84090614 C146.67783399 390.7371639 146.6569259 394.63268137 146.63250732 398.52891541 C146.6438627 399.65471651 146.65521808 400.78051762 146.66691756 401.94043392 C146.56701601 410.15155372 144.72247919 416.8044786 139.18142581 423.0496735 C123.38358457 438.45255818 99.16899873 440.22640673 78.375 440.5625 C76.56493091 440.59768991 74.75487258 440.63343688 72.94482422 440.66967773 C67.78603306 440.76980306 62.6270787 440.85650215 57.46801758 440.94140625 C53.82951626 441.0028804 50.1911293 441.06924996 46.55273438 441.13671875 C-139.45117388 444.56902523 -139.45117388 444.56902523 -162.93359375 422.1796875 C-167.59504744 417.26269098 -170.12931532 412.94690212 -170.1163187 406.03719044 C-170.11712998 404.49117876 -170.11712998 404.49117876 -170.11795765 402.91393453 C-170.1134788 401.77797532 -170.10899995 400.64201612 -170.10438538 399.47163391 C-170.10367883 398.26754464 -170.10297228 397.06345537 -170.10224432 395.82287854 C-170.10003167 393.17429524 -170.09598767 390.52578627 -170.08891487 387.87721825 C-170.07746683 383.56747949 -170.07292509 379.25774964 -170.06942749 374.94799805 C-170.06531749 370.30621874 -170.06064301 365.66444251 -170.0536319 361.02266657 C-170.03628615 349.49915704 -170.03387329 337.97571376 -170.04063416 326.45219421 C-170.04109269 325.61862712 -170.04155123 324.78506003 -170.04202367 323.92623333 C-170.04437359 319.66244575 -170.04689194 315.3986583 -170.04953277 311.13487089 C-170.05497121 302.34341355 -170.06004197 293.55195653 -170.06323242 284.76049805 C-170.06355905 283.87817893 -170.06388568 282.99585982 -170.06422221 282.08680376 C-170.06872456 267.81642327 -170.0479806 253.54617828 -170.01871855 239.27583203 C-169.98932412 224.61254675 -169.99051911 209.94948039 -170.01892942 195.2861926 C-170.03541673 186.25029906 -170.02792967 177.21508513 -169.9891172 168.17925706 C-169.96468731 161.97436624 -169.96986063 155.76992899 -169.99767197 149.56505445 C-170.0128092 145.9920661 -170.01541762 142.42030579 -169.98243904 138.8474102 C-169.84857362 123.38665388 -170.14905419 111.05699673 -179 98 C-180.27530725 95.44938549 -180.14088995 93.63086809 -180.16113281 90.77514648 C-180.17074036 89.68318466 -180.1803479 88.59122284 -180.19024658 87.46617126 C-180.19449646 86.27979568 -180.19874634 85.0934201 -180.203125 83.87109375 C-180.20882507 82.65229019 -180.21452515 81.43348663 -180.22039795 80.17774963 C-180.22986153 77.59108349 -180.23638729 75.00440521 -180.24023438 72.41772461 C-180.2499003 68.47813493 -180.28089538 64.53907564 -180.3125 60.59960938 C-180.31903393 58.0859406 -180.32428287 55.57226808 -180.328125 53.05859375 C-180.3404718 51.88638779 -180.3528186 50.71418182 -180.36553955 49.50645447 C-180.34347211 41.3148791 -179.8509225 33.96346152 -174.39648438 27.47680664 C-170.52841774 24.03193051 -166.62615412 24.22570391 -161.65625 24.37109375 C-160.76893188 24.36924576 -159.88161377 24.36739777 -158.96740723 24.36549377 C-156.14398785 24.36125697 -153.32308185 24.39532488 -150.5 24.4375 C-147.67709018 24.47437086 -144.85575691 24.50200679 -142.03259277 24.49879456 C-140.28058272 24.49703475 -138.52835662 24.5179987 -136.77697754 24.56504822 C-130.72995153 24.56295753 -128.27574029 23.26840416 -124 19 C-92.27885097 -0.19262799 -36.17246028 -1.86787989 0 0 Z " fill="#CF242A" transform="translate(709,453)"/>
<path d="M0 0 C0.71317383 0.37592285 1.42634766 0.7518457 2.16113281 1.13916016 C18.62546566 9.85662118 33.59641179 20.21073337 48 32 C48.82999512 32.67337402 48.82999512 32.67337402 49.67675781 33.36035156 C64.07262468 45.10368553 77.72768395 58.20508518 89 73 C89.99861869 74.2602104 90.99874011 75.51923081 92 76.77734375 C105.56109897 93.96378732 116.32099903 112.38934083 126 132 C126.34369629 132.69061523 126.68739258 133.38123047 127.04150391 134.09277344 C139.29140233 159.08909949 147.27903371 187.17070121 148 215 C135.75866087 214.72424613 123.57450834 214.33488867 111.4375 212.625 C110.60130127 212.51115967 109.76510254 212.39731934 108.90356445 212.2800293 C101.38246174 211.13672406 94.25013935 209.5824007 89.4140625 203.28515625 C85.21359806 196.49711289 82.67802582 188.76226797 79.8203125 181.33984375 C71.96007784 161.07006311 62.86222699 141.61543284 50 124 C49.60103516 123.45230957 49.20207031 122.90461914 48.79101562 122.34033203 C36.37017186 105.45418493 22.52761494 89.9632804 6 77 C5.0615625 76.23300781 4.123125 75.46601563 3.15625 74.67578125 C-43.6702015 37.20255138 -105.14870362 20.64868404 -164.54125977 26.76953125 C-211.75595788 32.56440611 -256.53028033 52.30505968 -292 84 C-292.54640137 84.4846875 -293.09280273 84.969375 -293.65576172 85.46875 C-339.16825502 126.00640712 -366.11238671 183.71034539 -370.75 244.25 C-370.85326552 246.49917333 -370.93800497 248.74931098 -371 251 C-371.03996094 252.04542969 -371.07992187 253.09085937 -371.12109375 254.16796875 C-372.19510614 307.04728454 -353.57534093 356.59807192 -326.64306641 401.27246094 C-325.16957811 403.7184953 -323.71289299 406.17350498 -322.26171875 408.6328125 C-307.65040591 433.19383876 -290.92525106 456.74565467 -273 479 C-272.484375 479.64179199 -271.96875 480.28358398 -271.4375 480.94482422 C-264.53227648 489.52863123 -257.52698686 498.02015088 -250.36816406 506.39355469 C-248.97483444 508.02954842 -247.59220031 509.67412368 -246.2109375 511.3203125 C-238.75756596 520.1636611 -230.89829001 528.57697459 -222.93017578 536.95654297 C-221.18654406 538.80250774 -219.46130249 540.66281294 -217.74609375 542.53515625 C-210.07710938 550.8956258 -202.13719279 558.97020567 -194.125 567 C-193.58457062 567.54301758 -193.04414124 568.08603516 -192.48733521 568.64550781 C-187.01857029 574.13494957 -181.53026332 579.54351002 -175.63623047 584.58203125 C-173.47988213 586.45073778 -171.48617743 588.45270942 -169.5 590.5 C-166.74609826 593.30113848 -163.95678791 595.92635056 -160.9375 598.4375 C-153.88662902 604.58083313 -148.89287635 611.67630619 -144.625 619.9375 C-144.12419922 620.88484009 -144.12419922 620.88484009 -143.61328125 621.85131836 C-138.36431049 632.50181485 -138.76357994 643.77990842 -138.90625 655.36056519 C-138.95885637 659.69858694 -138.97810289 664.03671596 -138.99609375 668.375 C-139.00003143 669.21679306 -139.00396912 670.05858612 -139.00802612 670.92588806 C-139.03400026 679.97207665 -138.65695034 688.97866402 -138 698 C-142.46032688 696.58080508 -145.32852416 694.13383525 -148.625 690.9375 C-152.45384421 687.32133654 -156.3200279 683.85406627 -160.4375 680.5625 C-165.85701405 676.20026109 -170.92483672 671.52034146 -176.0078125 666.77734375 C-178.32240262 664.61922281 -180.66895746 662.5082619 -183.0625 660.4375 C-187.95514142 656.20131361 -192.69724468 651.80082047 -197.45751953 647.41748047 C-198.91499983 646.0781119 -200.3772771 644.74396875 -201.83984375 643.41015625 C-216.30745782 630.21267565 -230.45024665 616.71780445 -244.27880859 602.8515625 C-246.65476675 600.47016511 -249.03613331 598.09426757 -251.41796875 595.71875 C-252.95865462 594.17740441 -254.49903084 592.63574924 -256.0390625 591.09375 C-256.73705963 590.3977771 -257.43505676 589.7018042 -258.15420532 588.98474121 C-262.09217394 585.02811601 -265.84619762 580.96599842 -269.49356079 576.74002075 C-271.16253729 574.81226042 -272.8854044 572.94743173 -274.6484375 571.10546875 C-275.2566333 570.46569092 -275.8648291 569.82591309 -276.49145508 569.16674805 C-277.1130249 568.51359619 -277.73459473 567.86044434 -278.375 567.1875 C-283.45607523 561.81233924 -288.28224764 556.36458379 -292.890625 550.578125 C-295.18834304 547.76980295 -297.60335148 545.10530355 -300.0625 542.4375 C-304.62538063 537.46747002 -308.84926464 532.3157187 -313 527 C-313.79664063 525.99839844 -314.59328125 524.99679687 -315.4140625 523.96484375 C-346.91530395 484.3187721 -374.24776113 442.25877322 -397 397 C-397.47453613 396.06559082 -397.94907227 395.13118164 -398.43798828 394.16845703 C-426.38731521 338.88774769 -438.11146224 274.33557264 -428 213 C-427.75056641 211.46593506 -427.75056641 211.46593506 -427.49609375 209.90087891 C-418.78313303 158.16364088 -395.83979317 109.03269649 -362 69 C-361.09865506 67.91170944 -360.19762806 66.8231555 -359.296875 65.734375 C-349.41305937 53.88755406 -338.79160977 42.63240665 -326.63671875 33.0859375 C-324.85437066 31.67590212 -323.10694492 30.22075254 -321.39453125 28.7265625 C-307.40539275 16.53292697 -291.39102515 6.63106357 -275 -2 C-274.36852051 -2.33692871 -273.73704102 -2.67385742 -273.08642578 -3.02099609 C-262.06564935 -8.86801385 -250.67898726 -13.63088246 -239 -18 C-238.26587891 -18.27585938 -237.53175781 -18.55171875 -236.77539062 -18.8359375 C-160.43358244 -47.05376962 -71.1973316 -38.00374208 0 0 Z " fill="#626367" transform="translate(646,208)"/>
<path d="M0 0 C0.92425781 0.74765625 1.84851563 1.4953125 2.80078125 2.265625 C13.14526488 11.10306222 20.75878831 21.7161134 26.625 33.9375 C26.95588623 34.62271729 27.28677246 35.30793457 27.62768555 36.01391602 C29.75777613 40.71974432 30.44059576 44.864776 31 50 C24.10179774 52.33618412 17.19610664 54.64907357 10.28466797 56.94580078 C7.93358583 57.73014439 5.58428142 58.51983755 3.23681641 59.31494141 C-0.13448161 60.45579891 -3.5116697 61.57737064 -6.890625 62.6953125 C-7.94179504 63.05561554 -8.99296509 63.41591858 -10.07598877 63.78713989 C-11.05670349 64.10762299 -12.03741821 64.42810608 -13.04785156 64.75830078 C-13.90944885 65.04698029 -14.77104614 65.33565979 -15.65875244 65.63308716 C-18.51716283 66.08104811 -19.61313489 65.56699328 -22 64 C-23.88427734 62.24755859 -23.88427734 62.24755859 -25.8359375 60.1484375 C-40.304567 44.92352969 -55.35869177 33.28679779 -77.375 32.6875 C-94.67247263 32.90184291 -110.13351937 40.00978155 -122.33984375 52.109375 C-126.28397173 56.39521158 -129.26975593 60.86889786 -132 66 C-132.70576172 67.30904297 -132.70576172 67.30904297 -133.42578125 68.64453125 C-140.95387108 83.81174467 -142.35195749 100.92415754 -137 117 C-132.38327017 127.3611092 -126.89148534 133.78406661 -117.375 139.6875 C-91.72972718 156.29729317 -84.89181372 179.53782919 -78.36376953 207.90380859 C-78 210 -78 210 -78 214 C-106.83706204 214.99398596 -133.89429003 208.55077867 -156 189 C-156.84175781 188.278125 -157.68351562 187.55625 -158.55078125 186.8125 C-184.1966532 164.39668476 -196.86714989 134.48577074 -200 101 C-201.99598544 69.99985119 -191.15934783 39.43893392 -171.40234375 15.69140625 C-151.07417954 -7.08274845 -125.9078492 -23.45720306 -95 -27 C-93.42412109 -27.18369141 -93.42412109 -27.18369141 -91.81640625 -27.37109375 C-58.57303096 -30.48405722 -25.85076645 -21.25111284 0 0 Z " fill="#626367" transform="translate(585,372)"/>
<path d="M0 0 C1.09957031 0.00193359 2.19914063 0.00386719 3.33203125 0.00585938 C4.46511719 0.01810547 5.59820313 0.03035156 6.765625 0.04296875 C7.91417969 0.04361328 9.06273437 0.04425781 10.24609375 0.04492188 C18.73451451 0.0899135 18.73451451 0.0899135 21.015625 1.23046875 C19.45958242 5.33536637 16.50639637 7.65419318 13.203125 10.35546875 C12.62925049 10.83121338 12.05537598 11.30695801 11.46411133 11.79711914 C9.6566582 13.28597203 7.83840789 14.76043533 6.015625 16.23046875 C5.43683594 16.6992041 4.85804688 17.16793945 4.26171875 17.65087891 C-10.94813108 29.89411509 -10.94813108 29.89411509 -17.984375 30.48046875 C-18.974375 30.35671875 -18.974375 30.35671875 -19.984375 30.23046875 C-19.82171646 31.37269897 -19.65905792 32.5149292 -19.49147034 33.69177246 C-18.94390534 38.09510905 -18.84978965 42.41710818 -18.87084961 46.84960938 C-18.87070358 47.67007751 -18.87055756 48.49054565 -18.8704071 49.33587646 C-18.87109794 52.01951845 -18.87885111 54.70308905 -18.88671875 57.38671875 C-18.88858588 59.25858523 -18.89000839 61.13045219 -18.89100647 63.00231934 C-18.89480841 67.90789154 -18.90461868 72.81343372 -18.91571045 77.71899414 C-18.9259747 82.73323155 -18.9305148 87.74747385 -18.93554688 92.76171875 C-18.9462432 102.58464854 -18.96329148 112.40755614 -18.984375 122.23046875 C-19.644375 122.23046875 -20.304375 122.23046875 -20.984375 122.23046875 C-21.11941446 129.44636888 -21.11941446 129.44636888 -18.83984375 136.0703125 C-17.35546654 137.52703355 -17.35546654 137.52703355 -14.984375 139.23046875 C-13.35045773 142.49830329 -13.31240966 145.71215965 -13.984375 149.23046875 C-16.09530508 152.87855261 -18.7783927 155.44820996 -22.296875 157.73046875 C-27.62355585 158.72147914 -32.28681013 158.2779024 -36.921875 155.41796875 C-40.7249258 151.38443002 -41.49247699 147.91656937 -41.3671875 142.484375 C-40.69626655 138.53415674 -38.92971905 136.91400444 -35.984375 134.23046875 C-32.98750701 132.66068076 -31.37192775 132.23046875 -27.984375 132.23046875 C-27.984375 128.93046875 -27.984375 125.63046875 -27.984375 122.23046875 C-77.154375 122.23046875 -126.324375 122.23046875 -176.984375 122.23046875 C-177.98697007 125.23825396 -178.28752142 127.76867522 -178.546875 130.91796875 C-178.63066406 131.91183594 -178.71445312 132.90570312 -178.80078125 133.9296875 C-178.86136719 134.68894531 -178.92195312 135.44820312 -178.984375 136.23046875 C-178.324375 136.23046875 -177.664375 136.23046875 -176.984375 136.23046875 C-173.86375114 140.19126057 -173.45294649 143.27046936 -173.984375 148.23046875 C-175.8002084 152.33998644 -178.15116695 154.89721167 -181.984375 157.23046875 C-186.60080069 158.58415749 -190.52254375 158.8657664 -194.859375 156.60546875 C-198.63544521 153.73565539 -200.54871763 151.87378314 -201.33203125 147.12109375 C-201.60140649 143.00448747 -201.37356994 140.10934584 -198.796875 136.79296875 C-194.75678837 133.11200094 -192.42905714 132.23046875 -186.984375 132.23046875 C-186.984375 130.25046875 -186.984375 128.27046875 -186.984375 126.23046875 C-188.304375 126.23046875 -189.624375 126.23046875 -190.984375 126.23046875 C-191.12125214 124.69136139 -191.21721505 123.1485958 -191.296875 121.60546875 C-191.35488281 120.74695313 -191.41289063 119.8884375 -191.47265625 119.00390625 C-190.984375 116.23046875 -190.984375 116.23046875 -188.4921875 113.8515625 C-183.71847978 108.59346758 -185.45261261 99.53682605 -185.58959961 92.82446289 C-185.72065228 84.68867494 -185.58180239 78.35353646 -180.47241211 71.64770508 C-178.984375 70.23046875 -178.984375 70.23046875 -176.984375 70.23046875 C-176.984375 69.57046875 -176.984375 68.91046875 -176.984375 68.23046875 C-177.59925781 68.25367188 -178.21414063 68.276875 -178.84765625 68.30078125 C-179.65589844 68.31882812 -180.46414063 68.336875 -181.296875 68.35546875 C-182.49763672 68.39027344 -182.49763672 68.39027344 -183.72265625 68.42578125 C-185.984375 68.23046875 -185.984375 68.23046875 -188.984375 66.23046875 C-189.34082031 63.54077148 -189.34082031 63.54077148 -189.3125 60.1640625 C-189.30476562 58.35325195 -189.30476562 58.35325195 -189.296875 56.50585938 C-189.2659375 54.60610352 -189.2659375 54.60610352 -189.234375 52.66796875 C-189.22664062 50.76241211 -189.22664062 50.76241211 -189.21875 48.81835938 C-189.13807278 39.38416653 -189.13807278 39.38416653 -187.984375 38.23046875 C-186.23598665 38.10731705 -184.48272996 38.05259064 -182.73022461 38.02514648 C-181.60913803 38.00520126 -180.48805145 37.98525604 -179.33299255 37.96470642 C-177.50333702 37.93963768 -177.50333702 37.93963768 -175.63671875 37.9140625 C-174.39515518 37.8932814 -173.15359161 37.87250031 -171.87440491 37.85108948 C-168.56838377 37.79663266 -165.26235255 37.7464267 -161.95623779 37.69824219 C-158.58470009 37.64807019 -155.21325447 37.59236174 -151.84179688 37.53710938 C-145.22272949 37.42976837 -138.6035934 37.32802677 -131.984375 37.23046875 C-132.79567871 36.67415771 -133.60698242 36.11784668 -134.44287109 35.54467773 C-136.984375 33.23046875 -136.984375 33.23046875 -137.63134766 30.83618164 C-137.6369873 29.96727295 -137.64262695 29.09836426 -137.6484375 28.203125 C-137.65810547 26.76743164 -137.65810547 26.76743164 -137.66796875 25.30273438 C-137.64863281 24.30951172 -137.62929688 23.31628906 -137.609375 22.29296875 C-137.62871094 21.30361328 -137.64804687 20.31425781 -137.66796875 19.29492188 C-137.6360142 14.54327996 -137.49133136 11.97133656 -134.7578125 7.9765625 C-131.984375 6.23046875 -131.984375 6.23046875 -129.30859375 6.09765625 C-126.984375 7.23046875 -126.984375 7.23046875 -125.69140625 9.48828125 C-125.24861328 10.90753906 -125.24861328 10.90753906 -124.796875 12.35546875 C-124.47589844 13.34546875 -124.15492188 14.33546875 -123.82421875 15.35546875 C-123.14420501 17.68332975 -122.48875331 20.01359597 -121.859375 22.35546875 C-121.570625 23.30421875 -121.281875 24.25296875 -120.984375 25.23046875 C-117.36958786 27.03786232 -113.15204954 26.45802943 -109.171875 26.48046875 C-107.81739258 26.51140625 -107.81739258 26.51140625 -106.43554688 26.54296875 C-99.61933268 26.67133043 -99.61933268 26.67133043 -93.984375 23.23046875 C-92.59441017 20.61371689 -91.65348883 17.91716642 -90.734375 15.10546875 C-88.04273044 7.28882419 -88.04273044 7.28882419 -86.984375 6.23046875 C-84.3181147 6.14191714 -81.67790386 6.11522202 -79.01171875 6.1328125 C-78.21407608 6.13422745 -77.41643341 6.1356424 -76.59461975 6.13710022 C-74.03700065 6.14271559 -71.47946782 6.15527063 -68.921875 6.16796875 C-67.19205855 6.17298177 -65.46224074 6.17754502 -63.73242188 6.18164062 C-59.48303947 6.19269 -55.23372188 6.20996489 -50.984375 6.23046875 C-49.21351075 9.29079299 -48.72835789 11.51673985 -48.71875 15.0390625 C-48.71617187 15.95107422 -48.71359375 16.86308594 -48.7109375 17.80273438 C-48.71867188 18.74826172 -48.72640625 19.69378906 -48.734375 20.66796875 C-48.72664062 21.60962891 -48.71890625 22.55128906 -48.7109375 23.52148438 C-48.71351563 24.43478516 -48.71609375 25.34808594 -48.71875 26.2890625 C-48.72100586 27.11720459 -48.72326172 27.94534668 -48.72558594 28.79858398 C-48.984375 31.23046875 -48.984375 31.23046875 -50.984375 36.23046875 C-69.794375 36.23046875 -88.604375 36.23046875 -107.984375 36.23046875 C-107.984375 36.89046875 -107.984375 37.55046875 -107.984375 38.23046875 C-81.254375 38.23046875 -54.524375 38.23046875 -26.984375 38.23046875 C-26.984375 30.97046875 -26.984375 23.71046875 -26.984375 16.23046875 C-21.34250337 7.20347415 -21.34250337 7.20347415 -17.046875 4.85546875 C-16.23347656 4.39398437 -15.42007813 3.9325 -14.58203125 3.45703125 C-9.6764944 1.14073265 -5.43613169 -0.02226491 0 0 Z " fill="#FEFBFB" transform="translate(801.984375,630.76953125)"/>
<path d="M0 0 C0.53625 1.0725 1.0725 2.145 1.625 3.25 C3.87144769 7.08217547 5.86192647 9.11905749 10 11 C16.19987902 11.81309889 21.75478161 11.71003252 27 8 C29.48522988 5.31326499 30.8418238 3.47452861 32 0 C38.13330136 0.36799808 40.90099462 1.60820852 45 6 C46.92863938 11.77987054 44.91450094 16.28458971 42.921875 21.74609375 C42.5946344 22.67543228 42.2673938 23.60477081 41.93023682 24.56227112 C40.88300446 27.52542382 39.81655046 30.48125325 38.75 33.4375 C38.04696351 35.42209656 37.34512759 37.40711884 36.64453125 39.39257812 C28.9702465 61.0297535 28.9702465 61.0297535 26 64 C23.84521484 64.22705078 23.84521484 64.22705078 21.2109375 64.1953125 C20.26992188 64.18886719 19.32890625 64.18242188 18.359375 64.17578125 C17.37453125 64.15902344 16.3896875 64.14226562 15.375 64.125 C14.38242187 64.11597656 13.38984375 64.10695313 12.3671875 64.09765625 C9.91121866 64.07404116 7.45572832 64.04110799 5 64 C4.375 61.625 4.375 61.625 4 59 C6.68092691 56.31907309 8.39167363 56.61329743 12.125 56.375 C13.22070312 56.30023437 14.31640625 56.22546875 15.4453125 56.1484375 C16.28835938 56.09945312 17.13140625 56.05046875 18 56 C19.38996526 51.99896776 20.7774029 47.99707036 22.16259766 43.99438477 C22.63327335 42.63542563 23.10461525 41.27669703 23.57666016 39.91821289 C24.25863007 37.95520646 24.93812677 35.99135817 25.6171875 34.02734375 C26.22989502 32.25991821 26.22989502 32.25991821 26.85498047 30.45678711 C28.00327225 26.99012116 29.0218934 23.51764843 30 20 C28.54048816 24.04124206 27.08259944 28.08306782 25.625 32.125 C25.2125 33.26710938 24.8 34.40921875 24.375 35.5859375 C23.97539063 36.69453125 23.57578125 37.803125 23.1640625 38.9453125 C22.79748535 39.96125488 22.4309082 40.97719727 22.05322266 42.02392578 C20.99843236 45.00442965 19.99037969 47.99754456 19 51 C17.35 51 15.7 51 14 51 C12.5810401 47.39673211 11.16526825 43.79221929 9.75 40.1875 C9.35425781 39.18267578 8.95851563 38.17785156 8.55078125 37.14257812 C5.93087163 30.46395606 3.41793089 23.75436488 1 17 C2.9568137 23.9553887 5.32317216 30.62935322 8.0625 37.3125 C8.41376953 38.17939453 8.76503906 39.04628906 9.12695312 39.93945312 C9.79495411 41.58735726 10.46734761 43.23349064 11.14501953 44.87744141 C11.83108325 46.58065041 12.45528017 48.30872048 13.05859375 50.04296875 C13.36925781 50.68878906 13.67992187 51.33460938 14 52 C15.485 52.495 15.485 52.495 17 53 C17 53.66 17 54.32 17 55 C12.38 55.66 7.76 56.32 3 57 C-6.9040003 32.59231547 -6.9040003 32.59231547 -10.5625 22.375 C-10.8011377 21.72088135 -11.03977539 21.0667627 -11.28564453 20.39282227 C-12.72705646 16.28377866 -13.71720833 12.35184966 -14 8 C-10.14173269 2.15748093 -6.9817457 -0.38787476 0 0 Z " fill="#FDF9F9" transform="translate(678,591)"/>
<path d="M0 0 C9.9 0 19.8 0 30 0 C30 14.19 30 28.38 30 43 C20.1 43 10.2 43 0 43 C0 28.81 0 14.62 0 0 Z " fill="#D02A2F" transform="translate(745,699)"/>
<path d="M0 0 C0 13.86 0 27.72 0 42 C-5.61 42 -11.22 42 -17 42 C-17.11547808 37.72987729 -17.21477422 33.46527086 -17.2746582 29.19482422 C-17.29964236 27.74574326 -17.33364269 26.29678625 -17.37719727 24.84814453 C-17.80237929 10.3319299 -17.80237929 10.3319299 -13.31469727 4.3828125 C-8.87963492 -0.28203302 -6.74344276 0 0 0 Z " fill="#CF272D" transform="translate(642,700)"/>
<path d="M0 0 C3.94807909 2.08577763 6.65386161 4.21112133 9 8 C9.88450169 13.27513621 9.61026039 17.75768421 7.25 22.5625 C4.54974346 25.48777792 2.58820171 26.77461164 -1.3671875 27.3359375 C-7.07568491 27.42485491 -10.6242073 27.05561275 -15 23 C-17.910372 18.634442 -18.6506249 15.20499921 -18 10 C-14.20740363 2.56067635 -8.38630418 -1.67391301 0 0 Z " fill="#FDF9F9" transform="translate(654,639)"/>
<path d="M0 0 C3.42717689 2.02543067 6.20750852 4.41501704 8 8 C8.49893401 12.36210879 9.00145931 16.96102884 7.0234375 20.98828125 C4.23150295 24.43966047 1.23171351 26.57098299 -3.11328125 27.40625 C-7.62717419 27.59867172 -10.37110824 27.21485647 -13.9375 24.3125 C-17.46492342 20.82590324 -18.74682432 17.98320946 -19.375 13.0625 C-18.76777263 8.10347649 -16.12474852 5.25707187 -12.875 1.625 C-8.60209962 -0.79011761 -4.78655659 -1.01239766 0 0 Z " fill="#FDFAFA" transform="translate(699,572)"/>
<path d="M0 0 C48.18 0 96.36 0 146 0 C146 0.99 146 1.98 146 3 C97.82 3 49.64 3 0 3 C0 2.01 0 1.02 0 0 Z " fill="#CF242A" transform="translate(629,689)"/>
<path d="M0 0 C-6.66932373 6.84957573 -6.66932373 6.84957573 -10.24609375 7.25390625 C-14.39518663 8.37798673 -16.93316905 11.08028479 -20.0625 13.9375 C-21.27919808 15.03368215 -22.49915592 16.12625913 -23.72265625 17.21484375 C-24.25640869 17.70073975 -24.79016113 18.18663574 -25.34008789 18.68725586 C-27.12913083 20.10212332 -28.93255899 21.04880281 -31 22 C-30.67436149 14.67313351 -29.41092858 10.40400986 -24.07421875 5.078125 C-16.52637905 -1.26459744 -9.32429312 -0.72882192 0 0 Z " fill="#D12E34" transform="translate(813,635)"/>
<path d="M0 0 C1.9375 1.125 1.9375 1.125 3 3 C3.38976435 6.11811483 3.50422245 8.11019567 1.9375 10.875 C-1.1069286 12.64273274 -3.5631012 12.36823916 -7 12 C-8.9375 10.9375 -8.9375 10.9375 -10 9 C-10.375 5.4375 -10.375 5.4375 -10 2 C-6.30513897 -0.46324069 -4.36706908 -0.38991688 0 0 Z " fill="#D0282E" transform="translate(778,770)"/>
<path d="M0 0 C1.9375 1.125 1.9375 1.125 3 3 C3.38976435 6.11811483 3.50422245 8.11019567 1.9375 10.875 C-1.1069286 12.64273274 -3.5631012 12.36823916 -7 12 C-8.9375 10.9375 -8.9375 10.9375 -10 9 C-10.375 5.4375 -10.375 5.4375 -10 2 C-6.30513897 -0.46324069 -4.36706908 -0.38991688 0 0 Z " fill="#D0282E" transform="translate(618,770)"/>
<path d="M0 0 C1.33573379 3.66893113 0.66610265 5.94051356 -0.625 9.5625 C-0.94726562 10.51253906 -1.26953125 11.46257813 -1.6015625 12.44140625 C-3.27169383 15.49709347 -4.91756605 16.47926431 -8 18 C-7.29412215 14.83090255 -6.23148962 11.93925594 -5 8.9375 C-3.92152008 6.30077518 -2.90129759 3.70389276 -2 1 C-1.34 0.67 -0.68 0.34 0 0 Z " fill="#D43E44" transform="translate(712,639)"/>
<path d="M0 0 C2.31 0 4.62 0 7 0 C6.34 2.31 5.68 4.62 5 7 C2.69 7 0.38 7 -2 7 C-2 6.34 -2 5.68 -2 5 C-0.02 5 1.96 5 4 5 C4 4.34 4 3.68 4 3 C2.68 2.67 1.36 2.34 0 2 C0 1.34 0 0.68 0 0 Z " fill="#D43A40" transform="translate(691,641)"/>
<path d="M0 0 C0.33 1.32 0.66 2.64 1 4 C-1.475 5.485 -1.475 5.485 -4 7 C-3.43628586 3.73045798 -2.50037734 2.17424117 0 0 Z " fill="#D23338" transform="translate(708,650)"/>
</svg>
